<?xml version="1.0" encoding="utf-8"?><svg version="1.1" id="Layer_1" xmlns="http://www.w3.org/2000/svg" xmlns:xlink="http://www.w3.org/1999/xlink" x="0px" y="0px" viewBox="0 0 122.88 101.27" style="enable-background:new 0 0 122.88 101.27" xml:space="preserve"><g><path d="M99.49,68.13c0.16-0.77,0.92-1.26,1.69-1.1c0.77,0.16,1.26,0.92,1.1,1.69c-0.41,1.88-1.15,3.45-2.21,4.72 c-1.07,1.28-2.46,2.24-4.13,2.88c-0.74,0.28-1.56-0.09-1.84-0.83c-0.28-0.74,0.09-1.56,0.83-1.84c1.22-0.47,2.21-1.14,2.96-2.04 C98.65,70.7,99.18,69.54,99.49,68.13L99.49,68.13z M76.45,2.25c-0.16-1.04,0.55-2,1.58-2.17c1.04-0.16,2,0.55,2.17,1.58 c0.44,2.82,0.56,10.8,0.35,18.67c-0.19,6.84-0.62,13.66-1.32,17.02c-1.25,6.06-3.36,11.99-6.35,16.33 c-2.67,3.87-6.05,6.53-10.19,7.06c-2.62,0.86-5.11,1.86-7.49,2.94c-2.44,1.11-4.71,2.29-6.87,3.5c-4.28,2.4-6.97,4.67-9.49,6.79 c-3.96,3.34-7.51,6.32-15.42,8.87l0,0l-8.47,3.31c-0.12,0.05-0.25,0.08-0.37,0.1v0C8.17,87.35,5.07,89.14,4.1,91 c-0.35,0.67-0.36,1.38-0.12,2.05c0.29,0.82,0.93,1.62,1.78,2.3c2.27,1.83,5.85,2.8,8.82,1.61c0.12-0.05,0.25-0.09,0.38-0.11 l4.62-1.1c6.13-1.85,8.11-1.32,11.86-0.31c1.42,0.38,3.13,0.84,5.48,1.24c2.84,0.48,5.56,0.58,8.12,0.33 c2.54-0.25,4.95-0.86,7.18-1.82c0.03-0.01,0.06-0.03,0.1-0.04c2.49-1.08,4.37-2.33,6.11-3.5c4.05-2.71,7.49-5,15.77-4.54 c1.39,0.08,2.8,0.28,4.23,0.6c1.41,0.31,2.82,0.73,4.22,1.24c2.8,1.02,4.91,2.15,6.91,3.22c3.04,1.63,5.83,3.12,10.59,3.75 c3.52,0.47,6.85,0.28,9.71-0.53c2.51-0.71,4.65-1.9,6.23-3.54c1.55-1.6,2.57-3.67,2.9-6.16c0.27-2.05,0.08-4.41-0.67-7.06 c-0.48-1.7-1.11-3.4-1.76-5.13c-0.24-0.64-0.48-1.29-0.75-2.05c-0.01-0.03-0.02-0.06-0.03-0.09c-0.72-2.26-1.63-4.7-2.53-7.15 c-2.78-7.52-5.58-15.08-5.07-23.41c0.66-10.66,1.53-13.91,2.25-16.6c0.88-3.29,1.52-5.67,1.15-22.24 c-0.02-1.05,0.81-1.91,1.86-1.93c1.05-0.02,1.91,0.81,1.93,1.86c0.38,17.14-0.31,19.73-1.27,23.3c-0.68,2.53-1.5,5.59-2.13,15.84 c-0.46,7.54,2.2,14.73,4.84,21.88c0.88,2.37,1.75,4.73,2.57,7.3c0.22,0.6,0.48,1.3,0.73,1.98c0.69,1.85,1.36,3.65,1.86,5.43 c0.9,3.16,1.12,6.03,0.78,8.58c-0.44,3.34-1.83,6.12-3.93,8.3c-2.06,2.14-4.79,3.67-7.94,4.57c-3.34,0.95-7.18,1.17-11.22,0.64 c-5.45-0.72-8.52-2.37-11.88-4.16c-1.88-1-3.85-2.06-6.42-3c-1.27-0.46-2.52-0.84-3.74-1.11c-1.21-0.27-2.41-0.44-3.62-0.51 c-7.02-0.39-9.97,1.58-13.45,3.9c-1.89,1.26-3.92,2.62-6.72,3.83c-0.03,0.02-0.07,0.03-0.1,0.05c-2.57,1.11-5.36,1.81-8.31,2.1 c-2.9,0.29-5.95,0.17-9.12-0.36c-2.56-0.43-4.35-0.91-5.84-1.31c-3.09-0.83-4.72-1.27-9.83,0.28v0c-0.04,0.01-0.07,0.02-0.11,0.03 l-4.64,1.11c-4.29,1.66-9.33,0.33-12.49-2.22c-1.39-1.12-2.45-2.5-2.98-3.98c-0.59-1.64-0.55-3.38,0.33-5.08 c1.46-2.8,5.38-5.37,13.02-6.7l8.29-3.24l0,0c0.04-0.02,0.08-0.03,0.12-0.04c7.28-2.32,10.57-5.09,14.25-8.19 c2.67-2.25,5.54-4.66,10.07-7.21c2.27-1.27,4.65-2.51,7.15-3.65c2.51-1.14,5.19-2.21,8.06-3.15l0,0c0.12-0.04,0.25-0.07,0.39-0.08 c3.01-0.33,5.58-2.4,7.69-5.46c2.69-3.9,4.6-9.33,5.76-14.93c0.65-3.14,1.06-9.7,1.24-16.35C76.97,12.57,76.86,4.87,76.45,2.25 L76.45,2.25z"/></g></svg>